<?xml version="1.0" encoding="UTF-8" standalone="no"?>
<svg width="400px" height="61px" viewBox="0 0 400 61" version="1.1" xmlns="http://www.w3.org/2000/svg" xmlns:xlink="http://www.w3.org/1999/xlink" xmlns:sketch="http://www.bohemiancoding.com/sketch/ns">
    <!-- Generator: Sketch 3.3.1 (12005) - http://www.bohemiancoding.com/sketch -->
    <title>Imported Layers</title>
    <desc>Created with Sketch.</desc>
    <defs></defs>
    <g id="Page-1" stroke="none" stroke-width="1" fill="none" fill-rule="evenodd" sketch:type="MSPage">
        <g id="EducaSound_home" sketch:type="MSArtboardGroup" transform="translate(-760.000000, -189.000000)" fill="#FFFFFF">
            <g id="_header" sketch:type="MSLayerGroup">
                <g id="Imported-Layers" transform="translate(760.000000, 189.000000)" sketch:type="MSShapeGroup">
                    <path d="M30.64256,34.2850368 C28.56896,36.7197574 25.55072,38.6881324 21.58656,40.1895221 C17.62304,41.6928309 12.94528,42.4950221 7.55712,42.5980147 C7.50464,43.0138235 7.47968,43.6074706 7.47968,44.3847132 C7.47968,47.9082132 8.35968,50.5226912 10.12224,52.2319853 C11.88288,53.9406397 14.26752,54.7959265 17.27296,54.7959265 C20.58752,54.7959265 24.2944,54.0960882 28.3872,52.6983309 L29.00928,57.5146765 C26.62528,58.551 24.41088,59.2892206 22.36416,59.7293382 C20.3168,60.1681765 18.12736,60.3895147 15.79648,60.3895147 C11.28832,60.3895147 7.60832,59.1337721 4.75904,56.6210074 C1.90912,54.1101618 0.48448,50.3410147 0.48448,45.3174044 C0.48448,40.8113162 1.44256,36.4478824 3.35936,32.2264632 C5.27616,28.0056838 8.04864,24.5487132 11.67616,21.8542721 C15.30304,19.16175 19.52704,17.8151691 24.3456,17.8151691 C27.14432,17.8151691 29.41056,18.6307941 31.14688,20.2620441 C32.88256,21.8932941 33.7504,23.9525074 33.7504,26.4390441 C33.7504,29.2351985 32.7136,31.8515956 30.64256,34.2850368 L30.64256,34.2850368 Z M13.96928,26.9821544 C11.29984,29.4680515 9.44832,32.9646838 8.41152,37.4707721 C12.5568,37.4195956 16.016,36.9142279 18.78848,35.9559485 C21.55968,34.9976691 23.61984,33.7937426 24.96768,32.3428897 C26.31488,30.8939559 26.9888,29.3126029 26.9888,27.6033088 C26.9888,26.361 26.62528,25.3246765 25.9008,24.4962574 C25.1744,23.6691176 24.13888,23.2533088 22.7904,23.2533088 C19.5776,23.2533088 16.63808,24.4962574 13.96928,26.9821544 L13.96928,26.9821544 Z" id="Fill-1"></path>
                    <path d="M73.62432,20.8448162 L66.00704,56.7374338 L66.00704,56.8928824 C60.82432,59.2239706 55.59168,60.3895147 50.3072,60.3895147 C45.43552,60.3895147 41.5744,59.0953897 38.72512,56.5045809 C35.8752,53.9156912 34.45056,50.2393015 34.45056,45.4728529 C34.45056,40.6053309 35.48608,36.0595809 37.55904,31.8375221 C39.63136,27.6167426 42.6112,24.2243824 46.49792,21.6610809 C50.38464,19.0971397 54.8928,17.8151691 60.02304,17.8151691 C62.56064,17.8151691 64.94464,18.0480221 67.17248,18.5143676 L70.90368,1.03376471 L77.97696,0.256522059 L73.62432,20.6119632 L73.7024,20.6119632 L73.62432,20.8448162 L73.62432,20.8448162 Z M44.36032,52.5038603 C46.14784,54.1351103 48.49216,54.9507353 51.39456,54.9507353 C54.08832,54.9507353 56.88704,54.5118971 59.78944,53.6297426 L66.00704,24.0305515 C63.8816,23.5136691 61.62816,23.2533088 59.24544,23.2533088 C55.82464,23.2533088 52.7808,24.1847206 50.11264,26.0501029 C47.4432,27.9148456 45.37152,30.5171691 43.89376,33.8577132 C42.41664,37.1988971 41.67872,41.0448088 41.67872,45.3954485 C41.67872,48.5025 42.57216,50.8719706 44.36032,52.5038603 L44.36032,52.5038603 Z" id="Fill-2"></path>
                    <path d="M114.27392,18.1254265 L105.41312,59.301375 L98.57344,59.301375 L99.19552,56.2717279 C95.10144,59.0173456 90.74944,60.3895147 86.1376,60.3895147 C82.66624,60.3895147 80.04864,59.4440294 78.288,57.5536985 C76.52544,55.6633676 75.64416,53.2683088 75.64416,50.3672426 C75.64416,49.17675 75.73504,47.9593897 75.91616,46.7158015 C76.09792,45.4728529 76.42176,43.7123824 76.88832,41.4324706 L81.552,19.2903309 L88.62592,18.5143676 L83.6512,41.509875 C83.02912,44.3073088 82.71808,46.6377574 82.71808,48.5025 C82.71808,50.8329485 83.24864,52.4917059 84.31104,53.4742941 C85.3728,54.4588015 87.07072,54.9507353 89.40224,54.9507353 C93.392,54.9507353 97.04576,53.6297426 100.36096,50.9883971 L107.20192,18.9033088 L114.27392,18.1254265" id="Fill-3"></path>
                    <path d="M119.4816,56.4655588 C116.6304,53.8510809 115.20704,49.9008971 115.20704,44.6182059 C115.20704,40.1639338 116.20288,35.8785441 118.1984,31.7601176 C120.19264,27.6429706 123.05664,24.2896324 126.7872,21.6988235 C130.5184,19.1099338 134.8704,17.8151691 139.84512,17.8151691 C141.91744,17.8151691 143.89888,18.0224338 145.79072,18.4369632 C147.68256,18.8521324 149.19808,19.3952426 150.33856,20.0675735 L148.16256,24.8065147 C146.71104,24.2896324 145.19488,23.9006912 143.61536,23.64225 C142.03456,23.3825294 140.59584,23.2533088 139.30176,23.2533088 C136.03648,23.2533088 133.10912,24.2243824 130.5184,26.1671691 C127.9264,28.1093162 125.90592,30.6860515 124.45632,33.8967353 C123.0048,37.1086985 122.27904,40.5272868 122.27904,44.1518603 C122.27904,47.9331618 123.26272,50.6781397 125.23264,52.3874338 C127.20192,54.0960882 130.02496,54.9507353 133.7056,54.9507353 C136.60608,54.9507353 139.7408,54.3807574 143.10976,53.2414412 L143.34336,57.9036176 C139.35168,59.5598162 135.31072,60.3895147 131.21728,60.3895147 C126.24384,60.3895147 122.33088,59.0819559 119.4816,56.4655588" id="Fill-4"></path>
                    <path d="M180.8064,50.3672426 C180.288,52.4917059 180.02944,54.5624338 180.02944,56.5819853 C180.02944,57.1526029 180.08064,58.0590662 180.18496,59.301375 L173.5008,59.7677206 L173.34528,55.7273382 C171.42784,57.2818235 169.48416,58.4467279 167.51616,59.2239706 C165.54624,60.0012132 163.39584,60.3895147 161.06432,60.3895147 C157.07328,60.3895147 153.93856,59.0953897 151.65952,56.5045809 C149.37856,53.9156912 148.24,50.2393015 148.24,45.4728529 C148.24,40.6053309 149.27488,36.0595809 151.34848,31.8375221 C153.42016,27.6167426 156.40064,24.2243824 160.28672,21.6610809 C164.17344,19.0971397 168.6816,17.8151691 173.8112,17.8151691 C176.29888,17.8151691 178.74752,18.0608162 181.15648,18.5533897 C183.56608,19.0453235 185.67616,19.7317279 187.49056,20.6119632 L180.8064,50.3672426 L180.8064,50.3672426 Z M157.80032,52.5422426 C159.35424,54.1485441 161.55648,54.9507353 164.40576,54.9507353 C167.67168,54.9507353 170.80576,53.6297426 173.8112,50.9883971 L179.79584,24.0305515 C177.6704,23.5136691 175.4176,23.2533088 173.0336,23.2533088 C169.61344,23.2533088 166.5696,24.1847206 163.90144,26.0501029 C161.232,27.9148456 159.16032,30.5171691 157.68384,33.8577132 C156.20672,37.1988971 155.46752,41.0448088 155.46752,45.3954485 C155.46752,48.5549559 156.24512,50.9372206 157.80032,52.5422426 L157.80032,52.5422426 Z" id="Fill-5"></path>
                    <path d="M184.61504,55.495125 L188.57856,50.2898382 C191.60896,52.8537794 194.56384,53.8625956 198.60544,53.8625956 C203.424,53.8625956 206.45504,51.6101912 206.45504,48.4244559 C206.45504,45.5502574 204.51328,43.9964118 199.53856,40.966125 C195.18528,38.3241397 191.60896,35.6060294 191.60896,30.6342353 C191.60896,22.7869632 198.91648,17.737125 207.85472,17.737125 C212.90688,17.737125 216.40384,19.2129265 218.9696,21.3879265 L215.472,26.7486618 C213.29536,25.1954559 210.57472,24.2627647 206.688,24.2627647 C203.19104,24.2627647 200.2368,26.4377647 200.2368,29.3126029 C200.2368,32.0319926 202.56896,33.7406471 206.29952,35.8382426 C211.81824,38.8685294 215.16096,41.8988162 215.16096,46.7158015 C215.16096,55.9601912 206.61056,60.3895147 197.82784,60.3895147 C191.68704,60.3895147 187.3344,58.6015368 184.61504,55.495125" id="Fill-6"></path>
                    <path d="M311.46176,18.1254265 L302.6016,59.301375 L293.97376,59.301375 L294.67328,56.1162794 C290.39744,59.0685221 286.0448,60.3895147 281.61472,60.3895147 C274.07552,60.3895147 270.88832,55.6499338 270.88832,49.9789412 C270.88832,47.5704485 271.19936,45.4728529 272.13248,41.1996176 L276.79616,19.1348824 L285.65632,18.4356838 L280.60416,41.509875 C278.73856,50.3672426 280.21504,53.6297426 286.43392,53.6297426 C289.4656,53.6297426 292.73024,52.5422426 295.99424,49.8228529 L302.6016,18.9020294 L311.46176,18.1254265" id="Fill-7"></path>
                    <path d="M351.568,28.0702941 C351.568,30.5561912 351.2576,32.5763824 350.32512,36.8489779 L345.58336,59.301375 L336.95552,59.301375 L341.77472,36.6154853 C343.71712,27.7593971 342.24128,24.4182132 336.02304,24.4182132 C332.75776,24.4182132 329.49376,26.0494632 326.30784,29.07975 L319.77792,59.301375 L311.2288,59.301375 L319.77792,18.9020294 L328.63872,18.1254265 L327.70624,22.5541103 C331.9808,19.2903309 336.41088,17.737125 340.84224,17.737125 C348.3808,17.737125 351.568,22.3980221 351.568,28.0702941" id="Fill-8"></path>
                    <path d="M395.24928,20.7661324 L387.55456,56.8928824 L387.55456,57.0483309 C382.65792,59.0685221 377.21728,60.3895147 371.07648,60.3895147 C361.67168,60.3895147 354.52096,55.495125 354.52096,45.3174044 C354.52096,30.4787868 364.15872,17.737125 380.71424,17.737125 C382.81344,17.737125 384.9888,17.8925735 387.08864,18.280875 L390.74112,1.11052941 L399.60256,0.334566176 L395.24928,20.5339191 L395.32672,20.5339191 L395.24928,20.7661324 L395.24928,20.7661324 Z M372.78656,53.6297426 C375.19552,53.6297426 377.45024,53.3188456 379.85984,52.6202868 L385.68896,25.0400074 C383.5904,24.6517059 381.56928,24.4182132 379.70432,24.4182132 C369.75552,24.4182132 363.53792,32.9646838 363.53792,44.5401618 C363.53792,50.7549044 367.26784,53.6297426 372.78656,53.6297426 L372.78656,53.6297426 Z" id="Fill-9"></path>
                    <path d="M249.44896,24.0695735 L246.02688,32.3774338 C245.92256,32.6307574 245.67744,32.7836471 245.41952,32.7836471 C245.33632,32.7836471 245.25184,32.7676544 245.16992,32.7343897 C244.83456,32.5962132 244.67456,32.2123897 244.81216,31.8771838 L248.23488,23.5699632 C238.65984,20.0004044 227.90784,24.6344338 223.98464,34.1519779 C219.97696,43.8729485 224.6112,55.0012721 234.336,59.0071103 C244.06016,63.0135882 255.19232,58.3808382 259.2,48.6592279 C263.1232,39.1423235 258.75968,28.2807574 249.44896,24.0695735" id="Fill-38"></path>
                    <path d="M224.46016,56.6363603 C224.72,57.00675 224.84992,57.5498603 224.84992,58.2663309 C224.84992,58.9815221 224.71808,59.5252721 224.45696,59.8943824 C224.1952,60.2634926 223.82592,60.4483676 223.34848,60.4483676 C222.8704,60.4483676 222.5024,60.2634926 222.24192,59.8943824 C221.98208,59.5252721 221.85216,58.9815221 221.85216,58.2663309 C221.85216,57.5536985 221.98272,57.0112279 222.24512,56.6401985 C222.5056,56.2685294 222.87424,56.082375 223.34848,56.082375 C223.82976,56.082375 224.19968,56.26725 224.46016,56.6363603 L224.46016,56.6363603 Z M224.0128,58.2663309 C224.0128,57.2389632 223.79136,56.7252794 223.34848,56.7252794 C222.90368,56.7252794 222.68288,57.2389632 222.68288,58.2663309 C222.68288,59.2930588 222.90368,59.8061029 223.34848,59.8061029 C223.79136,59.8061029 224.0128,59.2930588 224.0128,58.2663309 L224.0128,58.2663309 Z" id="Fill-39"></path>
                    <path d="M261.75232,56.2192721 L261.75232,60.4483676 L260.93312,60.4483676 L260.93312,57.0547279 L259.728,57.5268309 L259.50592,56.9862794 L261.02976,56.2192721 L261.75232,56.2192721" id="Fill-40"></path>
                    <path d="M264.68096,56.2192721 L264.68096,60.4483676 L263.86176,60.4483676 L263.86176,57.0547279 L262.65664,57.5268309 L262.43456,56.9862794 L263.9584,56.2192721 L264.68096,56.2192721" id="Fill-41"></path>
                    <path d="M267.67936,39.6457721 L267.66464,39.4845662 L264.03264,39.8664706 L264.04096,40.02 C264.07168,40.5189706 264.08704,40.9808382 264.08704,41.4324706 C264.08704,41.8834632 264.07168,42.3459706 264.04096,42.8462206 L264.03264,42.9991103 L267.75104,43.3893309 L267.76,43.2204485 C267.81888,42.0369926 267.792,40.8343456 267.67936,39.6457721" id="Fill-42"></path>
                    <path d="M219.24928,42.8462206 C219.21856,42.3632426 219.20384,41.8879412 219.20384,41.4324706 C219.20384,40.9763603 219.21856,40.5010588 219.24864,40.02 L219.25888,39.8664706 L218.32064,39.7679559 L218.31808,39.9425956 C218.304,40.9379779 218.35008,41.9397574 218.45376,42.9223456 L218.4704,43.0809926 L219.25888,42.9991103 L219.24928,42.8462206" id="Fill-43"></path>
                    <path d="M226.49856,22.2201838 C226.06528,22.5956912 225.64992,22.9820735 225.264,23.3671765 C224.91584,23.7158162 224.5728,24.0817279 224.21888,24.4847426 L224.11456,24.6037279 L225.50208,25.8524338 L225.6096,25.7424044 C226.27008,25.0675147 226.97664,24.4310074 227.70944,23.8507941 L227.82912,23.7554779 L226.6304,22.1056765 L226.49856,22.2201838" id="Fill-44"></path>
                    <path d="M263.26336,35.3942868 C263.51552,36.2969118 263.71264,37.2276838 263.84896,38.1597353 L263.87072,38.3119853 L267.45728,37.9351985 L267.42848,37.7669559 C267.23008,36.6039706 266.94592,35.4454632 266.58688,34.3227794 L266.5376,34.1698897 L263.22176,35.245875 L263.26336,35.3942868" id="Fill-45"></path>
                    <path d="M261.53344,31.0346912 C261.97312,31.8733456 262.36096,32.7414265 262.68544,33.6159044 L262.73856,33.7598382 L266.00576,32.6998456 L265.94112,32.5405588 C265.50144,31.4543382 264.98432,30.3917868 264.40512,29.3848897 L264.32512,29.2467132 L261.4624,30.8990735 L261.53344,31.0346912" id="Fill-46"></path>
                    <path d="M263.39968,27.7785882 C262.75392,26.8273456 262.0352,25.9074485 261.264,25.0432059 L261.15712,24.9242206 L258.83648,27.0128603 L258.9344,27.1305662 C259.53152,27.8515147 260.09216,28.6210809 260.59712,29.4162353 L260.67968,29.5454559 L263.49568,27.9206029 L263.39968,27.7785882" id="Fill-47"></path>
                    <path d="M259.95008,23.6774338 C259.11936,22.8726838 258.23936,22.1242279 257.33504,21.4525368 L257.20512,21.3559412 L255.46112,23.7554779 L255.58144,23.8507941 C256.31296,24.4310074 257.02016,25.0675147 257.68128,25.7424044 L257.7888,25.8517941 L260.07296,23.7964191 L259.95008,23.6774338" id="Fill-48"></path>
                    <path d="M255.77216,20.3791103 C254.82048,19.7765074 253.8144,19.2289191 252.7808,18.7529779 L252.6336,18.6851691 L251.48288,21.2670221 L251.62048,21.3348309 C252.4608,21.7525588 253.28448,22.2291397 254.06848,22.7505 L254.19712,22.8355809 L255.91552,20.4705882 L255.77216,20.3791103" id="Fill-49"></path>
                    <path d="M247.7952,17.0532794 L247.63648,17.0174559 L247.07392,19.6613603 L247.22304,19.6997426 C248.13568,19.9332353 249.04064,20.2268603 249.91296,20.5729412 L250.05568,20.629875 L251.1904,18.0832059 L251.03104,18.0230735 C249.97952,17.6296544 248.89088,17.3034044 247.7952,17.0532794" id="Fill-50"></path>
                    <path d="M242.58944,16.4244485 L242.42688,16.4218897 L242.42688,19.0158971 L242.58048,19.0222941 C243.52192,19.0606765 244.46784,19.1591912 245.39328,19.314 L245.54368,19.3395882 L246.09984,16.7270294 L245.93216,16.7020809 C244.8192,16.5344779 243.69472,16.4410809 242.58944,16.4244485" id="Fill-51"></path>
                    <path d="M237.392,16.8952721 L237.23328,16.9272574 L237.74656,19.3395882 L237.89696,19.314 C238.8224,19.1591912 239.7696,19.0606765 240.70976,19.0222941 L240.864,19.0158971 L240.864,16.4577132 L240.69376,16.4679485 C239.58528,16.5357574 238.4736,16.6796912 237.392,16.8952721" id="Fill-52"></path>
                    <path d="M235.54816,17.3398676 C234.49536,17.6373309 233.45088,18.0128382 232.44224,18.4561544 L232.29568,18.5207647 L233.23456,20.629875 L233.37664,20.5729412 C234.24896,20.2275 235.15392,19.9332353 236.06784,19.6997426 L236.21632,19.6613603 L235.71328,17.2931691 L235.54816,17.3398676" id="Fill-53"></path>
                    <path d="M230.73728,19.2890515 C229.7856,19.8027353 228.85824,20.3899853 227.98144,21.0348088 L227.85344,21.1288456 L229.09376,22.8355809 L229.22176,22.7505 C230.00576,22.2291397 230.82944,21.7525588 231.66976,21.3348309 L231.80736,21.2670221 L230.8896,19.2071691 L230.73728,19.2890515" id="Fill-54"></path>
                    <path d="M223.02336,25.9592647 C222.39168,26.8049559 221.81504,27.6979853 221.30816,28.612125 L221.232,28.7496618 L222.60992,29.5454559 L222.69248,29.4162353 C223.1968,28.623 223.7568,27.8540735 224.35648,27.1305662 L224.4544,27.0128603 L223.12832,25.8185294 L223.02336,25.9592647" id="Fill-55"></path>
                    <path d="M220.4544,30.308625 C220.02944,31.2457941 219.66208,32.2219853 219.36192,33.2096912 L219.31648,33.3593824 L220.5504,33.7598382 L220.60416,33.6159044 C220.93056,32.7407868 221.3184,31.8720662 221.7568,31.0346912 L221.82784,30.8990735 L220.52672,30.1480588 L220.4544,30.308625" id="Fill-56"></path>
                    <path d="M219.44192,38.1597353 C219.57824,37.2276838 219.77472,36.2969118 220.02752,35.3942868 L220.06848,35.245875 L218.92096,34.8735662 L218.8832,35.0462868 C218.66752,36.0301544 218.51136,37.0396103 218.41856,38.0484265 L218.40448,38.2057941 L219.42016,38.3119853 L219.44192,38.1597353" id="Fill-57"></path>
                    <path d="M220.02752,47.4706544 C219.77536,46.5693088 219.57888,45.6378971 219.44192,44.7052059 L219.42016,44.5529559 L218.69248,44.6297206 L218.7232,44.7992426 C218.89792,45.7562426 219.13216,46.7177206 219.41952,47.6580882 L219.46688,47.8135368 L220.06848,47.6184265 L220.02752,47.4706544" id="Fill-58"></path>
                    <path d="M220.60416,49.2490368 L220.5504,49.1057426 L219.97952,49.2899779 L220.04032,49.4479853 C220.39104,50.3474118 220.8,51.2404412 221.25696,52.1046838 L221.3344,52.2505368 L221.82784,51.9665074 L221.7568,51.83025 C221.32096,50.9986324 220.93248,50.1305515 220.60416,49.2490368" id="Fill-59"></path>
                    <path d="M262.68544,49.2490368 C262.35968,50.1247941 261.97248,50.9941544 261.53344,51.83025 L261.4624,51.9665074 L264.70976,53.8408456 L264.78912,53.6981912 C265.3696,52.6541912 265.87392,51.5551765 266.28928,50.4331324 L266.34752,50.2770441 L262.7392,49.1057426 L262.68544,49.2490368" id="Fill-60"></path>
                    <path d="M263.84896,44.7052059 C263.712,45.6378971 263.51488,46.5693088 263.26336,47.4706544 L263.22176,47.6184265 L266.832,48.7910074 L266.8768,48.6310809 C267.20128,47.4828088 267.44256,46.2980735 267.59424,45.1082206 L267.61472,44.9470147 L263.87072,44.5529559 L263.84896,44.7052059" id="Fill-61"></path>
                </g>
            </g>
        </g>
    </g>
</svg>