<?xml version="1.0" encoding="UTF-8" standalone="no"?>
<svg width="600px" height="93px" viewBox="0 0 600 93" version="1.1" xmlns="http://www.w3.org/2000/svg" xmlns:xlink="http://www.w3.org/1999/xlink" xmlns:sketch="http://www.bohemiancoding.com/sketch/ns">
    <!-- Generator: Sketch 3.3.1 (12005) - http://www.bohemiancoding.com/sketch -->
    <title>educasound_logo</title>
    <desc>Created with Sketch.</desc>
    <defs></defs>
    <g id="Page-1" stroke="none" stroke-width="1" fill="none" fill-rule="evenodd" sketch:type="MSPage">
        <g id="educasound_logo" sketch:type="MSLayerGroup">
            <g id="knob_icon" transform="translate(327.360000, 23.969072)" sketch:type="MSShapeGroup">
                <g id="0-11" transform="translate(4.800000, 59.443299)" fill="#40672A">
                    <path d="M4.53024,1.47170103 C4.92,2.02682474 5.11488,2.84081443 5.11488,3.91462887 C5.11488,4.98748454 4.91712,5.80147423 4.52544,6.35468041 C4.1328,6.9078866 3.57888,7.18496907 2.86272,7.18496907 C2.1456,7.18496907 1.5936,6.9078866 1.20288,6.35468041 C0.81312,5.80147423 0.61824,4.98748454 0.61824,3.91462887 C0.61824,2.84656701 0.81408,2.03353608 1.20768,1.47745361 C1.5984,0.920412371 2.15136,0.641412371 2.86272,0.641412371 C3.58464,0.641412371 4.13952,0.919453608 4.53024,1.47170103 L4.53024,1.47170103 Z M3.8592,3.91462887 C3.8592,2.37485567 3.52704,1.60592784 2.86272,1.60592784 C2.19552,1.60592784 1.86432,2.37485567 1.86432,3.91462887 C1.86432,5.4534433 2.19552,6.2233299 2.86272,6.2233299 C3.52704,6.2233299 3.8592,5.4534433 3.8592,3.91462887 L3.8592,3.91462887 Z" id="Fill-40"></path>
                    <path d="M60.46848,0.846587629 L60.46848,7.18496907 L59.23968,7.18496907 L59.23968,2.09873196 L57.432,2.80629897 L57.09888,1.99614433 L59.38464,0.846587629 L60.46848,0.846587629" id="Fill-41"></path>
                    <path d="M64.86144,0.846587629 L64.86144,7.18496907 L63.63264,7.18496907 L63.63264,2.09873196 L61.82496,2.80629897 L61.49184,1.99614433 L63.7776,0.846587629 L64.86144,0.846587629" id="Fill-42"></path>
                </g>
                <g id="marks" fill="#80B927">
                    <path d="M74.15904,35.4502577 L74.13696,35.2096082 L68.68896,35.7810309 L68.70144,36.011134 C68.74752,36.7589691 68.77056,37.4521546 68.77056,38.1290412 C68.77056,38.8049691 68.74752,39.4981546 68.70144,40.2469485 L68.68896,40.4760928 L74.26656,41.0609381 L74.28,40.8078247 C74.36832,39.0341134 74.328,37.2316392 74.15904,35.4502577" id="Fill-43"></path>
                    <path d="M1.51392,40.2469485 C1.46784,39.5240412 1.44576,38.8116804 1.44576,38.1290412 C1.44576,37.4454433 1.46784,36.7330825 1.51296,36.011134 L1.52832,35.7810309 L0.12096,35.6333814 L0.11712,35.8960825 C0.096,37.3869588 0.16512,38.8883814 0.32064,40.362 L0.3456,40.5997732 L1.52832,40.4760928 L1.51392,40.2469485" id="Fill-44"></path>
                    <path d="M12.38784,9.3335567 C11.73792,9.89635052 11.11488,10.4754433 10.536,11.0526186 C10.01376,11.5751443 9.4992,12.1235567 8.96832,12.7275773 L8.81184,12.9059072 L10.89312,14.7774124 L11.0544,14.6125052 C12.04512,13.6019691 13.10496,12.648 14.20416,11.7774433 L14.38368,11.6345876 L12.5856,9.16289691 L12.38784,9.3335567" id="Fill-45"></path>
                    <path d="M67.53504,29.0783196 C67.91328,30.431134 68.20896,31.826134 68.41344,33.2230515 L68.44608,33.4512371 L73.82592,32.8865258 L73.78272,32.6343711 C73.48512,30.892299 73.05888,29.1550206 72.52032,27.4723918 L72.4464,27.2432474 L67.47264,28.8568454 L67.53504,29.0783196" id="Fill-46"></path>
                    <path d="M64.94016,22.5453093 C65.59968,23.8012887 66.18144,25.1023299 66.66816,26.4139175 L66.74784,26.6286804 L71.64864,25.0400103 L71.55168,24.8012784 C70.89216,23.173299 70.11648,21.5817526 69.24768,20.0726598 L69.12768,19.8646082 L64.8336,22.3410928 L64.94016,22.5453093" id="Fill-47"></path>
                    <path d="M67.73952,17.6642474 C66.77088,16.2395258 65.6928,14.859866 64.536,13.5655361 L64.37568,13.3862474 L60.89472,16.5166082 L61.0416,16.6930206 C61.93728,17.7735464 62.77824,18.9269381 63.53568,20.1196392 L63.65952,20.3133093 L67.88352,17.8770928 L67.73952,17.6642474" id="Fill-48"></path>
                    <path d="M62.56512,11.5176186 C61.31904,10.3114948 59.99904,9.18974227 58.64256,8.18304124 L58.44768,8.03826804 L55.83168,11.6345876 L56.01216,11.7774433 C57.10944,12.648 58.17024,13.6019691 59.16192,14.6125052 L59.3232,14.7764536 L62.74944,11.6959485 L62.56512,11.5176186" id="Fill-49"></path>
                    <path d="M56.29824,6.57423711 C54.87072,5.67108247 53.3616,4.85134021 51.8112,4.13706186 L51.5904,4.03543299 L49.86432,7.905 L50.07072,8.00758763 C51.3312,8.63270103 52.56672,9.34697938 53.74272,10.1293299 L53.93568,10.2558866 L56.51328,6.71134021 L56.29824,6.57423711" id="Fill-50"></path>
                    <path d="M44.3328,1.58962887 L44.09472,1.53689691 L43.25088,5.49946392 L43.47456,5.55603093 C44.84352,5.90597938 46.20096,6.34605155 47.50944,6.86474227 L47.72352,6.95007216 L49.4256,3.13419588 L49.18656,3.04407216 C47.60928,2.45443299 45.97632,1.96546392 44.3328,1.58962887" id="Fill-51"></path>
                    <path d="M36.52416,0.647164948 L36.28032,0.643329897 L36.28032,4.53207216 L36.51072,4.54070103 C37.92288,4.5982268 39.34176,4.74587629 40.72992,4.97789691 L40.95552,5.01720619 L41.78976,1.10065979 L41.53824,1.0642268 C39.8688,0.813030928 38.18208,0.672092784 36.52416,0.647164948" id="Fill-52"></path>
                    <path d="M28.728,1.35281443 L28.48992,1.40075258 L29.25984,5.01720619 L29.48544,4.97789691 C30.8736,4.74587629 32.2944,4.5982268 33.70464,4.54070103 L33.936,4.53207216 L33.936,0.697020619 L33.68064,0.712360825 C32.01792,0.814948454 30.3504,1.02971134 28.728,1.35281443" id="Fill-53"></path>
                    <path d="M25.96224,2.0201134 C24.38304,2.46593814 22.81632,3.0277732 21.30336,3.69315464 L21.08352,3.78903093 L22.49184,6.95007216 L22.70496,6.86474227 C24.01344,6.34701031 25.37088,5.90597938 26.74176,5.55603093 L26.96448,5.49946392 L26.20992,1.94916495 L25.96224,2.0201134" id="Fill-54"></path>
                    <path d="M18.74592,4.94050515 C17.3184,5.71039175 15.92736,6.59053608 14.61216,7.55696907 L14.42016,7.69790722 L16.28064,10.2558866 L16.47264,10.1293299 C17.64864,9.34697938 18.88416,8.63270103 20.14464,8.00758763 L20.35104,7.905 L18.9744,4.81778351 L18.74592,4.94050515" id="Fill-55"></path>
                    <path d="M7.17504,14.9375258 C6.22752,16.2059691 5.36256,17.5434433 4.60224,18.9144742 L4.488,19.1196495 L6.55488,20.3133093 L6.67872,20.1196392 C7.4352,18.9298144 8.2752,17.7773814 9.17472,16.6930206 L9.3216,16.5166082 L7.33248,14.7265979 L7.17504,14.9375258" id="Fill-56"></path>
                    <path d="M3.3216,21.4561546 C2.68416,22.861701 2.13312,24.3238144 1.68288,25.8041443 L1.61472,26.0294536 L3.4656,26.6286804 L3.54624,26.4139175 C4.03584,25.1013711 4.6176,23.7993711 5.2752,22.5453093 L5.38176,22.3410928 L3.43008,21.2155052 L3.3216,21.4561546" id="Fill-57"></path>
                    <path d="M1.80288,33.2230515 C2.00736,31.826134 2.30208,30.431134 2.68128,29.0783196 L2.74272,28.8568454 L1.02144,28.2988454 L0.9648,28.5567526 C0.64128,30.0313299 0.40704,31.5452165 0.26784,33.0562268 L0.24672,33.2920825 L1.77024,33.4512371 L1.80288,33.2230515" id="Fill-58"></path>
                    <path d="M2.68128,47.1778454 C2.30304,45.8269485 2.00832,44.4319485 1.80288,43.0331134 L1.77024,42.8058866 L0.67872,42.9199794 L0.7248,43.1740515 C0.98688,44.6093196 1.33824,46.0493814 1.76928,47.4587629 L1.84032,47.6917423 L2.74272,47.4002784 L2.68128,47.1778454" id="Fill-59"></path>
                    <path d="M3.54624,49.8432062 L3.4656,49.6284433 L2.60928,49.9055258 L2.70048,50.1423402 C3.22656,51.4894021 3.84,52.8287938 4.52544,54.1231237 L4.6416,54.3426804 L5.38176,53.9160309 L5.2752,53.7127732 C4.62144,52.4663814 4.03872,51.1643814 3.54624,49.8432062" id="Fill-60"></path>
                    <path d="M66.66816,49.8432062 C66.17952,51.1557526 65.59872,52.4587113 64.94016,53.7127732 L64.8336,53.9160309 L69.70464,56.7252062 L69.82368,56.5123608 C70.6944,54.9476598 71.45088,53.3005052 72.07392,51.6178763 L72.16128,51.3839381 L66.7488,49.6284433 L66.66816,49.8432062" id="Fill-61"></path>
                    <path d="M68.41344,43.0331134 C68.208,44.4319485 67.91232,45.8269485 67.53504,47.1778454 L67.47264,47.4002784 L72.888,49.156732 L72.9552,48.918 C73.44192,47.1970206 73.80384,45.420433 74.03136,43.6380928 L74.06208,43.3955258 L68.44608,42.8058866 L68.41344,43.0331134" id="Fill-62"></path>
                </g>
                <g id="wheel" transform="translate(3.840000, 7.670103)">
                    <path d="M59.17056,41.9391649 C65.5392,26.505 58.17408,8.83595876 42.72,2.47552577 C27.26496,-3.88586598 9.57408,3.47072165 3.20448,18.9048866 C-3.16416,34.3390515 4.20096,52.0080928 19.656,58.3694845 C35.11008,64.7299175 52.80192,57.3742887 59.17056,41.9391649" id="Fill-10" fill="#40672A"></path>
                    <path d="M42.97344,4.43619588 L37.84032,16.8866907 C37.68384,17.2663608 37.31616,17.4955052 36.92928,17.4955052 C36.80448,17.4955052 36.67776,17.4715361 36.55488,17.4216804 C36.05184,17.2155464 35.81184,16.6402887 36.01824,16.1378969 L41.15232,3.6864433 C26.78976,-1.66345361 10.66176,5.28278351 4.77696,19.546299 C-1.23456,34.1156598 5.7168,50.794299 20.304,56.7990309 C34.89024,62.8028041 51.58848,55.8594433 57.6,41.2900825 C63.4848,27.0256082 56.93952,10.7467732 42.97344,4.43619588" id="Fill-11" fill="#80B927"></path>
                </g>
            </g>
            <g id="s-und" transform="translate(276.480000, 0.000000)" fill="#40672A" sketch:type="MSShapeGroup">
                <path d="M0.44256,83.1736392 L6.38784,75.3721856 C10.93344,79.2149072 15.36576,80.7278351 21.42816,80.7278351 C28.656,80.7278351 33.20256,77.3510722 33.20256,72.576433 C33.20256,68.2696701 30.28992,65.9398763 22.82784,61.3982165 C16.29792,57.4394845 10.93344,53.365701 10.93344,45.9132371 C10.93344,34.1530515 21.89472,26.5836186 35.30208,26.5836186 C42.88032,26.5836186 48.12576,28.7954845 51.9744,32.0562371 L46.728,40.0906701 C43.46304,37.7618351 39.38208,36.3639588 33.552,36.3639588 C28.30656,36.3639588 23.8752,39.6247113 23.8752,43.932433 C23.8752,48.008134 27.37344,50.5699485 32.96928,53.713732 C41.24736,58.254433 46.26144,62.7960928 46.26144,70.0155773 C46.26144,83.8716186 33.43584,90.509134 20.26176,90.509134 C11.05056,90.509134 4.5216,87.8303505 0.44256,83.1736392" id="Fill-6"></path>
                <path d="M190.71264,27.1665464 L177.4224,88.8782784 L164.48064,88.8782784 L165.52992,84.1045979 C159.11616,88.5292887 152.5872,90.509134 145.94208,90.509134 C134.63328,90.509134 129.85248,83.4056598 129.85248,74.9062268 C129.85248,71.2974433 130.31904,68.1536598 131.71872,61.7481649 L138.71424,28.6785155 L152.00448,27.6305876 L144.42624,62.2141237 C141.62784,75.4891546 143.84256,80.3788454 153.17088,80.3788454 C157.7184,80.3788454 162.61536,78.7489485 167.51136,74.6732474 L177.4224,28.3295258 L190.71264,27.1665464" id="Fill-7"></path>
                <path d="M250.872,42.0705155 C250.872,45.7972268 250.4064,48.8240412 249.00768,55.2276186 L241.89504,88.8782784 L228.95328,88.8782784 L236.18208,54.8776701 C239.09568,41.6045567 236.88192,36.5969381 227.55456,36.5969381 C222.65664,36.5969381 217.76064,39.0417835 212.98176,43.5834433 L203.18688,88.8782784 L190.3632,88.8782784 L203.18688,28.3295258 L216.47808,27.1665464 L215.07936,33.8031031 C221.4912,28.9124536 228.13632,26.5836186 234.78336,26.5836186 C246.0912,26.5836186 250.872,33.5701237 250.872,42.0705155" id="Fill-8"></path>
                <path d="M316.39392,31.1233608 L304.85184,85.2694948 L304.85184,85.5024742 C297.50688,88.5292887 289.34592,90.509134 280.13472,90.509134 C266.02752,90.509134 255.30144,83.1736392 255.30144,67.9197216 C255.30144,45.6802577 269.75808,26.5836186 294.59136,26.5836186 C297.74016,26.5836186 301.0032,26.8165979 304.15296,27.398567 L309.63168,1.66441237 L322.92384,0.50143299 L316.39392,30.7762887 L316.51008,30.7762887 L316.39392,31.1233608 L316.39392,31.1233608 Z M282.69984,80.3788454 C286.31328,80.3788454 289.69536,79.9119278 293.30976,78.8649588 L302.05344,37.5288557 C298.9056,36.9468866 295.87392,36.5969381 293.07648,36.5969381 C278.15328,36.5969381 268.82688,49.4060103 268.82688,66.7548247 C268.82688,76.0692062 274.42176,80.3788454 282.69984,80.3788454 L282.69984,80.3788454 Z" id="Fill-9"></path>
            </g>
            <g id="educa" fill="#80B927" sketch:type="MSShapeGroup">
                <path d="M45.96384,51.3848969 C42.85344,55.0349072 38.32608,57.9850206 32.37984,60.2352371 C26.43456,62.4873711 19.41792,63.6896598 11.33568,63.8440206 C11.25696,64.4672165 11.21952,65.3579072 11.21952,66.5228041 C11.21952,71.8027113 12.53952,75.7211753 15.18336,78.2829897 C17.82432,80.8438454 21.40128,82.1257113 25.90944,82.1257113 C30.88128,82.1257113 36.4416,81.0777835 42.5808,78.9819278 L43.51392,86.2014124 C39.93792,87.7536495 36.61632,88.8610206 33.54624,89.5196907 C30.4752,90.1783608 27.19104,90.509134 23.69472,90.509134 C16.93248,90.509134 11.41248,88.6280412 7.13856,84.8610619 C2.86368,81.0979175 0.72672,75.4498454 0.72672,67.9197216 C0.72672,61.1671546 2.16384,54.627433 5.03904,48.2995979 C7.91424,41.9736804 12.07296,36.7925258 17.51424,32.7551753 C22.95456,28.7197423 29.29056,26.7005876 36.5184,26.7005876 C40.71648,26.7005876 44.11584,27.9239691 46.72032,30.3688144 C49.32384,32.812701 50.6256,35.8999175 50.6256,39.6256701 C50.6256,43.8164227 49.0704,47.7377629 45.96384,51.3848969 L45.96384,51.3848969 Z M20.95392,40.4396598 C16.94976,44.1663711 14.17248,49.4060103 12.61728,56.1595361 C18.8352,56.0828351 24.024,55.3263711 28.18272,53.8891856 C32.33952,52.4529588 35.42976,50.648567 37.45152,48.4740928 C39.47232,46.3034536 40.4832,43.932433 40.4832,41.3715773 C40.4832,39.508701 39.93792,37.9564639 38.8512,36.7139072 C37.7616,35.4742268 36.20832,34.8519897 34.1856,34.8519897 C29.3664,34.8519897 24.95712,36.7139072 20.95392,40.4396598 L20.95392,40.4396598 Z" id="Fill-1"></path>
                <path d="M110.43648,31.2412887 L99.01056,85.0355567 L99.01056,85.2694948 C91.23648,88.762268 83.38752,90.509134 75.4608,90.509134 C68.15328,90.509134 62.3616,88.5695567 58.08768,84.686567 C53.8128,80.8064536 51.67584,75.2964433 51.67584,68.1536598 C51.67584,60.8574742 53.22912,54.0445052 56.33856,47.7176289 C59.44704,41.3917113 63.9168,36.306433 69.74688,32.4646701 C75.57696,28.6219485 82.3392,26.7005876 90.03456,26.7005876 C93.84096,26.7005876 97.41696,27.0495773 100.75872,27.7494742 L106.35552,1.54936082 L116.96544,0.384463918 L110.43648,30.892299 L110.5536,30.892299 L110.43648,31.2412887 L110.43648,31.2412887 Z M66.54048,78.6904639 C69.22176,81.1353093 72.73824,82.3586907 77.09184,82.3586907 C81.13248,82.3586907 85.33056,81.7000206 89.68416,80.3788454 L99.01056,36.0159278 C95.8224,35.2412474 92.44224,34.8519897 88.86816,34.8519897 C83.73696,34.8519897 79.1712,36.2479485 75.16896,39.043701 C71.1648,41.8375361 68.05728,45.7387423 65.84064,50.7444433 C63.62496,55.7520619 62.51808,61.5161443 62.51808,68.0366907 C62.51808,72.6934021 63.85824,76.2446598 66.54048,78.6904639 L66.54048,78.6904639 Z" id="Fill-2"></path>
                <path d="M171.41088,27.1665464 L158.11968,88.8782784 L147.86016,88.8782784 L148.79328,84.3375773 C142.65216,88.4525876 136.12416,90.509134 129.2064,90.509134 C123.99936,90.509134 120.07296,89.0920825 117.432,86.2589381 C114.78816,83.4257938 113.46624,79.8361856 113.46624,75.4891546 C113.46624,73.7039381 113.60256,71.8794124 113.87424,70.0155773 C114.14688,68.1536598 114.63264,65.5141856 115.33248,62.0971546 L122.328,28.9124536 L132.93888,27.7494742 L125.4768,62.2141237 C124.54368,66.4058351 124.07712,69.8986082 124.07712,72.6934021 C124.07712,76.1861753 124.87296,78.6722474 126.46656,80.1449072 C128.0592,81.6204433 130.60608,82.3586907 134.10336,82.3586907 C140.088,82.3586907 145.56864,80.3788454 150.54144,76.4191546 L160.80288,28.3314433 L171.41088,27.1665464" id="Fill-3"></path>
                <path d="M179.2224,84.6290412 C174.9456,80.7096186 172.81056,74.7892577 172.81056,66.8717938 C172.81056,60.1959278 174.30432,53.7731753 177.2976,47.6006598 C180.28896,41.4300619 184.58496,36.4042268 190.1808,32.5212371 C195.7776,28.6420825 202.3056,26.7005876 209.76768,26.7005876 C212.87616,26.7005876 215.84832,27.0112268 218.68608,27.6325052 C221.52384,28.2547423 223.79712,29.068732 225.50784,30.0773505 L222.24384,37.179866 C220.06656,36.4042268 217.79232,35.8222577 215.42304,35.4339588 C213.05184,35.0456598 210.89376,34.8519897 208.95264,34.8519897 C204.05472,34.8519897 199.66368,36.306433 195.7776,39.2181959 C191.8896,42.129 188.85888,45.9908969 186.68448,50.8029278 C184.5072,55.6168763 183.41856,60.7414639 183.41856,66.1728557 C183.41856,71.8401031 184.89408,75.9551134 187.84896,78.5159691 C190.80288,81.0777835 195.03744,82.3586907 200.5584,82.3586907 C204.90912,82.3586907 209.6112,81.504433 214.66464,79.7959175 L215.01504,86.7833814 C209.02752,89.2656186 202.96608,90.509134 196.82592,90.509134 C189.36576,90.509134 183.49632,88.5494227 179.2224,84.6290412" id="Fill-4"></path>
                <path d="M271.2096,75.4891546 C270.432,78.6722474 270.04416,81.7757629 270.04416,84.8035361 C270.04416,85.6587526 270.12096,87.0163608 270.27744,88.8782784 L260.2512,89.5772165 L260.01792,83.5226289 C257.14176,85.8514639 254.22624,87.5973711 251.27424,88.762268 C248.31936,89.9271649 245.09376,90.509134 241.59648,90.509134 C235.60992,90.509134 230.90784,88.5695567 227.48928,84.686567 C224.06784,80.8064536 222.36,75.2964433 222.36,68.1536598 C222.36,60.8574742 223.91232,54.0445052 227.02272,47.7176289 C230.13024,41.3917113 234.60096,36.306433 240.43008,32.4646701 C246.26016,28.6219485 253.0224,26.7005876 260.7168,26.7005876 C264.44832,26.7005876 268.12128,27.0687526 271.73472,27.807 C275.34912,28.5442887 278.51424,29.574 281.23584,30.892299 L271.2096,75.4891546 L271.2096,75.4891546 Z M236.70048,78.7489485 C239.03136,81.1564021 242.33472,82.3586907 246.60864,82.3586907 C251.50752,82.3586907 256.20864,80.3788454 260.7168,76.4191546 L269.69376,36.0159278 C266.5056,35.2412474 263.1264,34.8519897 259.5504,34.8519897 C254.42016,34.8519897 249.8544,36.2479485 245.85216,39.043701 C241.848,41.8375361 238.74048,45.7387423 236.52576,50.7444433 C234.31008,55.7520619 233.20128,61.5161443 233.20128,68.0366907 C233.20128,72.7729794 234.36768,76.3434124 236.70048,78.7489485 L236.70048,78.7489485 Z" id="Fill-5"></path>
            </g>
        </g>
    </g>
</svg>