<?xml version="1.0" encoding="UTF-8" standalone="no"?>
<svg width="226px" height="167px" viewBox="0 0 226 167" version="1.1" xmlns="http://www.w3.org/2000/svg" xmlns:xlink="http://www.w3.org/1999/xlink" xmlns:sketch="http://www.bohemiancoding.com/sketch/ns">
    <!-- Generator: Sketch 3.3.1 (12005) - http://www.bohemiancoding.com/sketch -->
    <title>Imported Layers</title>
    <desc>Created with Sketch.</desc>
    <defs></defs>
    <g id="Page-1" stroke="none" stroke-width="1" fill="none" fill-rule="evenodd" sketch:type="MSPage">
        <g id="Imported-Layers" sketch:type="MSLayerGroup">
            <path d="M157.526,86.57 C168.703,59.448 155.778,28.401 128.656,17.224 C101.534,6.047 70.487,18.973 59.31,46.095 C48.133,73.216 61.058,104.264 88.18,115.44 C115.302,126.618 146.349,113.692 157.526,86.57" id="Fill-1" fill="#3A5E30" sketch:type="MSShapeGroup"></path>
            <path d="M129.101,20.669 L120.093,42.548 C119.818,43.215 119.173,43.618 118.495,43.618 C118.275,43.618 118.052,43.576 117.836,43.488 C116.954,43.126 116.533,42.114 116.896,41.231 L125.905,19.353 C100.7,9.952 72.398,22.158 62.069,47.222 C51.52,72.824 63.72,102.13 89.317,112.682 C114.916,123.231 144.219,111.031 154.769,85.429 C165.097,60.364 153.61,31.759 129.101,20.669" id="Fill-2" fill="#74B943" sketch:type="MSShapeGroup"></path>
            <path d="M63.321,106.437 C64.005,107.412 64.346,108.842 64.346,110.728 C64.346,112.614 64,114.045 63.313,115.017 C62.624,115.989 61.651,116.477 60.394,116.477 C59.137,116.477 58.167,115.989 57.482,115.017 C56.797,114.045 56.456,112.614 56.456,110.728 C56.456,108.852 56.8,107.424 57.489,106.447 C58.177,105.467 59.146,104.978 60.394,104.978 C61.661,104.978 62.636,105.465 63.321,106.437 L63.321,106.437 Z M62.144,110.728 C62.144,108.023 61.561,106.671 60.394,106.671 C59.224,106.671 58.642,108.023 58.642,110.728 C58.642,113.433 59.224,114.785 60.394,114.785 C61.561,114.785 62.144,113.433 62.144,110.728 L62.144,110.728 Z" id="Fill-3" fill="#3A5E30" sketch:type="MSShapeGroup"></path>
            <path d="M161.489,105.338 L161.489,116.477 L159.332,116.477 L159.332,107.538 L156.16,108.781 L155.575,107.358 L159.586,105.338 L161.489,105.338" id="Fill-4" fill="#3A5E30" sketch:type="MSShapeGroup"></path>
            <path d="M169.198,105.338 L169.198,116.477 L167.042,116.477 L167.042,107.538 L163.869,108.781 L163.284,107.358 L167.295,105.338 L169.198,105.338" id="Fill-5" fill="#3A5E30" sketch:type="MSShapeGroup"></path>
            <path d="M177.091,61.691 L177.051,61.267 L167.491,62.272 L167.514,62.675 C167.595,63.99 167.634,65.207 167.634,66.396 C167.634,67.585 167.595,68.802 167.514,70.118 L167.491,70.521 L177.28,71.549 L177.303,71.105 C177.458,67.987 177.387,64.82 177.091,61.691" id="Fill-6" fill="#74B943" sketch:type="MSShapeGroup"></path>
            <path d="M49.604,70.118 C49.524,68.848 49.484,67.596 49.484,66.396 C49.484,65.196 49.524,63.943 49.602,62.675 L49.629,62.272 L47.159,62.012 L47.153,62.472 C47.117,65.094 47.237,67.732 47.51,70.32 L47.554,70.738 L49.629,70.521 L49.604,70.118" id="Fill-7" fill="#74B943" sketch:type="MSShapeGroup"></path>
            <path d="M68.687,15.799 C67.546,16.788 66.453,17.804 65.438,18.819 C64.52,19.737 63.618,20.7 62.685,21.763 L62.411,22.075 L66.063,25.364 L66.346,25.075 C68.085,23.298 69.946,21.621 71.874,20.093 L72.19,19.841 L69.034,15.497 L68.687,15.799" id="Fill-8" fill="#74B943" sketch:type="MSShapeGroup"></path>
            <path d="M165.465,50.493 C166.13,52.871 166.648,55.322 167.007,57.777 L167.065,58.177 L176.507,57.185 L176.431,56.742 C175.908,53.68 175.161,50.628 174.215,47.672 L174.085,47.269 L165.357,50.104 L165.465,50.493" id="Fill-9" fill="#74B943" sketch:type="MSShapeGroup"></path>
            <path d="M160.913,39.013 C162.07,41.221 163.09,43.508 163.945,45.812 L164.085,46.19 L172.685,43.398 L172.515,42.978 C171.357,40.117 169.997,37.32 168.471,34.668 L168.261,34.303 L160.725,38.654 L160.913,39.013" id="Fill-10" fill="#74B943" sketch:type="MSShapeGroup"></path>
            <path d="M165.824,30.437 C164.124,27.932 162.233,25.509 160.202,23.234 L159.921,22.919 L153.812,28.42 L154.07,28.73 C155.643,30.629 157.117,32.656 158.449,34.75 L158.666,35.091 L166.077,30.812 L165.824,30.437" id="Fill-11" fill="#74B943" sketch:type="MSShapeGroup"></path>
            <path d="M156.744,19.636 C154.558,17.516 152.241,15.545 149.86,13.777 L149.518,13.522 L144.928,19.841 L145.244,20.093 C147.17,21.621 149.031,23.298 150.772,25.075 L151.055,25.363 L157.068,19.95 L156.744,19.636" id="Fill-12" fill="#74B943" sketch:type="MSShapeGroup"></path>
            <path d="M145.746,10.95 C143.241,9.362 140.593,7.921 137.872,6.667 L137.485,6.488 L134.456,13.288 L134.818,13.467 C137.029,14.566 139.197,15.822 141.262,17.196 L141.6,17.419 L146.124,11.19 L145.746,10.95" id="Fill-13" fill="#74B943" sketch:type="MSShapeGroup"></path>
            <path d="M124.747,2.191 L124.331,2.097 L122.849,9.06 L123.242,9.16 C125.644,9.775 128.026,10.549 130.323,11.46 L130.698,11.61 L133.686,4.904 L133.266,4.746 C130.497,3.709 127.631,2.851 124.747,2.191" id="Fill-14" fill="#74B943" sketch:type="MSShapeGroup"></path>
            <path d="M111.044,0.534 L110.616,0.528 L110.616,7.36 L111.021,7.377 C113.499,7.477 115.99,7.737 118.425,8.145 L118.821,8.212 L120.285,1.332 L119.843,1.267 C116.914,0.826 113.955,0.579 111.044,0.534" id="Fill-15" fill="#74B943" sketch:type="MSShapeGroup"></path>
            <path d="M97.362,1.775 L96.944,1.859 L98.295,8.212 L98.692,8.145 C101.128,7.737 103.621,7.477 106.097,7.377 L106.502,7.36 L106.502,0.623 L106.054,0.649 C103.136,0.828 100.21,1.207 97.362,1.775" id="Fill-16" fill="#74B943" sketch:type="MSShapeGroup"></path>
            <path d="M92.509,2.946 C89.738,3.73 86.987,4.718 84.334,5.886 L83.947,6.055 L86.418,11.61 L86.793,11.46 C89.088,10.55 91.471,9.775 93.878,9.16 L94.268,9.06 L92.943,2.822 L92.509,2.946" id="Fill-17" fill="#74B943" sketch:type="MSShapeGroup"></path>
            <path d="M79.845,8.079 C77.34,9.431 74.898,10.978 72.59,12.676 L72.253,12.925 L75.518,17.419 L75.856,17.196 C77.919,15.822 80.087,14.566 82.3,13.467 L82.662,13.288 L80.247,7.864 L79.845,8.079" id="Fill-18" fill="#74B943" sketch:type="MSShapeGroup"></path>
            <path d="M59.538,25.645 C57.876,27.873 56.358,30.224 55.024,32.633 L54.823,32.995 L58.451,35.091 L58.668,34.75 C59.996,32.661 61.47,30.636 63.048,28.73 L63.306,28.42 L59.815,25.275 L59.538,25.645" id="Fill-19" fill="#74B943" sketch:type="MSShapeGroup"></path>
            <path d="M52.776,37.099 C51.657,39.569 50.69,42.139 49.9,44.74 L49.78,45.135 L53.029,46.19 L53.171,45.812 C54.03,43.505 55.05,41.218 56.205,39.013 L56.393,38.654 L52.967,36.677 L52.776,37.099" id="Fill-20" fill="#74B943" sketch:type="MSShapeGroup"></path>
            <path d="M50.111,57.777 C50.469,55.322 50.988,52.871 51.653,50.493 L51.761,50.104 L48.739,49.123 L48.64,49.577 C48.072,52.168 47.661,54.827 47.418,57.484 L47.38,57.897 L50.053,58.177 L50.111,57.777" id="Fill-21" fill="#74B943" sketch:type="MSShapeGroup"></path>
            <path d="M51.653,82.298 C50.989,79.924 50.471,77.472 50.111,75.014 L50.053,74.615 L48.138,74.815 L48.219,75.263 C48.68,77.783 49.295,80.315 50.052,82.791 L50.177,83.201 L51.761,82.688 L51.653,82.298" id="Fill-22" fill="#74B943" sketch:type="MSShapeGroup"></path>
            <path d="M53.171,86.982 L53.029,86.604 L51.526,87.09 L51.687,87.507 C52.61,89.874 53.686,92.227 54.889,94.503 L55.093,94.887 L56.393,94.139 L56.205,93.78 C55.056,91.59 54.035,89.303 53.171,86.982" id="Fill-23" fill="#74B943" sketch:type="MSShapeGroup"></path>
            <path d="M163.945,86.982 C163.088,89.289 162.068,91.577 160.913,93.78 L160.725,94.139 L169.274,99.074 L169.483,98.699 C171.01,95.95 172.338,93.056 173.432,90.1 L173.585,89.688 L164.087,86.604 L163.945,86.982" id="Fill-24" fill="#74B943" sketch:type="MSShapeGroup"></path>
            <path d="M167.007,75.014 C166.647,77.472 166.128,79.924 165.465,82.298 L165.357,82.688 L174.86,85.776 L174.978,85.354 C175.832,82.33 176.467,79.21 176.867,76.077 L176.921,75.651 L167.065,74.615 L167.007,75.014" id="Fill-25" fill="#74B943" sketch:type="MSShapeGroup"></path>
            <path d="M5.331,156.94 C5.11,161.139 7.275,162.861 10.722,162.861 C12.622,162.861 14.566,162.464 16.997,161.58 L17.438,164.894 C14.566,166.263 12.047,166.795 9.175,166.795 C4.314,166.795 0.337,164.32 0.337,158.266 C0.337,150.577 5.463,142.534 14.124,142.534 C17.792,142.534 20.045,144.788 20.045,147.705 C20.045,152.522 15.229,156.719 5.331,156.94 L5.331,156.94 Z M5.861,153.582 C12.268,153.449 15.273,151.107 15.273,148.633 C15.273,147.351 14.478,146.379 13.02,146.379 C9.97,146.379 6.965,149.03 5.861,153.582 L5.861,153.582 Z" id="Fill-26" fill="#74B943" sketch:type="MSShapeGroup"></path>
            <path d="M43.553,144.257 L39.178,164.806 L39.178,164.894 C36.394,166.043 33.301,166.795 29.81,166.795 C24.463,166.795 20.398,164.011 20.398,158.222 C20.398,149.781 25.877,142.534 35.29,142.534 C36.483,142.534 37.72,142.623 38.914,142.844 L40.99,133.078 L46.028,132.636 L43.553,144.125 L43.597,144.125 L43.553,144.257 L43.553,144.257 Z M30.783,162.95 C32.152,162.95 33.434,162.773 34.804,162.375 L38.118,146.688 C36.925,146.467 35.776,146.335 34.715,146.335 C29.059,146.335 25.524,151.195 25.524,157.779 C25.524,161.314 27.645,162.95 30.783,162.95 L30.783,162.95 Z" id="Fill-27" fill="#74B943" sketch:type="MSShapeGroup"></path>
            <path d="M67.193,142.756 L62.156,166.176 L57.251,166.176 L57.648,164.364 C55.218,166.043 52.744,166.795 50.224,166.795 C45.938,166.795 44.126,164.099 44.126,160.873 C44.126,159.503 44.303,158.311 44.833,155.88 L47.485,143.33 L52.522,142.931 L49.65,156.056 C48.589,161.094 49.429,162.95 52.964,162.95 C54.688,162.95 56.543,162.331 58.4,160.785 L62.156,143.197 L67.193,142.756" id="Fill-28" fill="#74B943" sketch:type="MSShapeGroup"></path>
            <path d="M67.237,157.779 C67.237,150.002 72.76,142.534 81.51,142.534 C84.161,142.534 86.415,143.109 87.829,143.948 L86.283,147.219 C84.692,146.599 82.88,146.335 81.421,146.335 C75.986,146.335 72.274,151.461 72.274,157.25 C72.274,161.403 74.617,162.95 78.416,162.95 C80.007,162.95 81.642,162.729 83.587,162.066 L83.808,165.248 C81.334,166.308 79.124,166.795 76.517,166.795 C71.037,166.795 67.237,164.099 67.237,157.779" id="Fill-29" fill="#74B943" sketch:type="MSShapeGroup"></path>
            <path d="M105.813,160.873 C105.371,162.773 105.327,164.408 105.459,166.176 L100.731,166.441 L100.643,164.275 C98.566,165.866 96.268,166.795 93.661,166.795 C89.419,166.795 86.37,163.967 86.37,158.311 C86.37,149.781 92.247,142.534 101.483,142.534 C104.399,142.534 107.36,143.109 109.614,144.125 L109.569,144.125 L105.813,160.873 L105.813,160.873 Z M96.18,162.95 C97.771,162.95 99.362,162.42 100.908,161.006 L104.045,146.776 C102.985,146.512 101.836,146.335 100.599,146.335 C95.384,146.335 91.54,151.062 91.54,157.868 C91.54,161.226 93.308,162.95 96.18,162.95 L96.18,162.95 Z" id="Fill-30" fill="#74B943" sketch:type="MSShapeGroup"></path>
            <path d="M107.801,164.011 L110.055,161.05 C111.779,162.508 113.457,163.082 115.755,163.082 C118.496,163.082 120.219,161.8 120.219,159.989 C120.219,158.354 119.114,157.471 116.286,155.747 C113.811,154.244 111.779,152.698 111.779,149.87 C111.779,145.406 115.932,142.534 121.014,142.534 C123.886,142.534 125.875,143.374 127.333,144.611 L125.345,147.66 C124.107,146.776 122.561,146.246 120.351,146.246 C118.363,146.246 116.684,147.483 116.684,149.119 C116.684,150.665 118.009,151.638 120.13,152.83 C123.268,154.554 125.168,156.277 125.168,159.018 C125.168,164.275 120.307,166.795 115.314,166.795 C111.823,166.795 109.348,165.778 107.801,164.011" id="Fill-31" fill="#3A5E30" sketch:type="MSShapeGroup"></path>
            <path d="M150.797,151.593 C150.797,159.768 145.318,166.795 137.01,166.795 C131.795,166.795 127.553,163.657 127.553,157.735 C127.553,149.56 133.033,142.534 141.34,142.534 C146.555,142.534 150.797,145.672 150.797,151.593 L150.797,151.593 Z M145.627,152.123 C145.627,148.19 143.329,146.335 140.589,146.335 C135.95,146.335 132.724,151.284 132.724,157.205 C132.724,161.139 135.021,162.95 137.761,162.95 C142.401,162.95 145.627,158.045 145.627,152.123 L145.627,152.123 Z" id="Fill-32" fill="#3A5E30" sketch:type="MSShapeGroup"></path>
            <path d="M175.542,142.756 L170.504,166.176 L165.599,166.176 L165.997,164.364 C163.567,166.043 161.092,166.795 158.573,166.795 C154.286,166.795 152.475,164.099 152.475,160.873 C152.475,159.503 152.652,158.311 153.182,155.88 L155.833,143.33 L160.871,142.931 L157.999,156.056 C156.938,161.094 157.778,162.95 161.313,162.95 C163.037,162.95 164.892,162.331 166.748,160.785 L170.504,143.197 L175.542,142.756" id="Fill-33" fill="#3A5E30" sketch:type="MSShapeGroup"></path>
            <path d="M198.343,148.412 C198.343,149.826 198.166,150.975 197.636,153.405 L194.94,166.176 L190.036,166.176 L192.775,153.273 C193.88,148.234 193.04,146.335 189.505,146.335 C187.649,146.335 185.794,147.263 183.981,148.986 L180.27,166.176 L175.409,166.176 L180.27,143.197 L185.307,142.756 L184.777,145.274 C187.208,143.418 189.726,142.534 192.245,142.534 C196.531,142.534 198.343,145.186 198.343,148.412" id="Fill-34" fill="#3A5E30" sketch:type="MSShapeGroup"></path>
            <path d="M223.176,144.257 L218.801,164.806 L218.801,164.894 C216.018,166.043 212.924,166.795 209.433,166.795 C204.086,166.795 200.021,164.011 200.021,158.222 C200.021,149.781 205.5,142.534 214.913,142.534 C216.106,142.534 217.343,142.623 218.537,142.844 L220.613,133.078 L225.651,132.636 L223.176,144.125 L223.22,144.125 L223.176,144.257 L223.176,144.257 Z M210.406,162.95 C211.775,162.95 213.057,162.773 214.427,162.375 L217.741,146.688 C216.548,146.467 215.399,146.335 214.338,146.335 C208.682,146.335 205.147,151.195 205.147,157.779 C205.147,161.314 207.268,162.95 210.406,162.95 L210.406,162.95 Z" id="Fill-35" fill="#3A5E30" sketch:type="MSShapeGroup"></path>
        </g>
    </g>
</svg>