<?xml version="1.0" encoding="UTF-8" standalone="no"?>
<svg width="18px" height="20px" viewBox="0 0 18 20" version="1.1" xmlns="http://www.w3.org/2000/svg" xmlns:xlink="http://www.w3.org/1999/xlink" xmlns:sketch="http://www.bohemiancoding.com/sketch/ns">
    <!-- Generator: Sketch 3.3.1 (12005) - http://www.bohemiancoding.com/sketch -->
    <title>icon_calendario</title>
    <desc>Created with Sketch.</desc>
    <defs></defs>
    <g id="Page-1" stroke="none" stroke-width="1" fill="none" fill-rule="evenodd" sketch:type="MSPage">
        <g id="EducaSound_ficha_curso" sketch:type="MSArtboardGroup" transform="translate(-1126.000000, -755.000000)" fill="#1E2820">
            <g id="ficha_curso" sketch:type="MSLayerGroup" transform="translate(0.000000, 160.000000)">
                <g id="datos_curso" transform="translate(1095.000000, 320.000000)" sketch:type="MSShapeGroup">
                    <g id="icon_calendario" transform="translate(31.000000, 275.000000)">
                        <path d="M13.640396,1.3558 L17.4375,1.3558 L17.4375,2.2033 L17.4375,2.2033 L17.4375,20 L16.5935111,20 L16.5935111,20 L0.5625,20 L0.5625,19.1527 L0.5625,1.3558 L1.40619026,1.3558 L4.35920574,1.3558 L4.35920574,0 L6.04678539,0 L6.04678539,1.3558 L6.04678539,1.3558 L8.15611061,1.3558 L8.15611061,1.3558 L8.15611061,0 L9.84388939,0 L9.84388939,1.3558 L11.9532146,1.3558 L11.9532146,0 L13.640396,0 L13.640396,1.3558 Z M13.640396,3.0508 L15.7495221,3.0508 L15.7495221,18.3054 L15.7495221,18.3054 L2.24988053,18.3054 L2.24988053,3.0508 L4.35920574,3.0508 L4.35920574,4.4068 L6.04678539,4.4068 L6.04678539,3.0508 L6.04678539,3.0508 L8.15611061,3.0508 L8.15611061,3.0508 L8.15611061,4.4068 L9.84388939,4.4068 L9.84388939,3.0508 L11.9532146,3.0508 L11.9532146,4.4068 L13.640396,4.4068 L13.640396,3.0508 Z M9,7.1186 L6.80604689,7.1186 L6.80604689,8.8136 L8.15630974,8.8136 L8.15630974,13.5594 L6.80604689,13.5594 L6.80604689,15.2544 L11.1935549,15.2544 L11.1935549,13.5594 L9.84388939,13.5594 L9.84388939,7.1186 L9,7.1186 L9,7.1186 Z" id="Rectangle-path"></path>
                    </g>
                </g>
            </g>
        </g>
    </g>
</svg>