<?xml version="1.0" encoding="UTF-8" standalone="no"?>
<svg width="20px" height="21px" viewBox="0 0 20 21" version="1.1" xmlns="http://www.w3.org/2000/svg" xmlns:xlink="http://www.w3.org/1999/xlink" xmlns:sketch="http://www.bohemiancoding.com/sketch/ns">
    <!-- Generator: Sketch 3.3.1 (12005) - http://www.bohemiancoding.com/sketch -->
    <title>icon_precio</title>
    <desc>Created with Sketch.</desc>
    <defs></defs>
    <g id="Page-1" stroke="none" stroke-width="1" fill="none" fill-rule="evenodd" sketch:type="MSPage">
        <g id="EducaSound_ficha_curso" sketch:type="MSArtboardGroup" transform="translate(-1125.000000, -697.000000)" fill="#1E2820">
            <g id="ficha_curso" sketch:type="MSLayerGroup" transform="translate(0.000000, 160.000000)">
                <g id="datos_curso" transform="translate(1095.000000, 320.000000)" sketch:type="MSShapeGroup">
                    <g id="icon_precio" transform="translate(30.000000, 217.500000)">
                        <path d="M8.46333333,19.4346535 L0.559803922,11.4524752 C0.0747058824,10.9625743 0.0749019608,10.1685149 0.559803922,9.6790099 L9.78,0.367524752 C10.0735294,0.0710891089 10.4945098,-0.0576237624 10.9017647,0.0243564356 L17.4882353,1.35465347 C17.9798039,1.45366337 18.3641176,1.84138614 18.4623529,2.33821782 L19.78,8.98950495 C19.8609804,9.40059406 19.7339216,9.82594059 19.4403922,10.1223762 L10.2194118,19.4346535 C9.73470588,19.9247525 8.94843137,19.9247525 8.46333333,19.4346535 L8.46333333,19.4346535 Z M3.19411765,10.5661386 L9.34156863,16.7742574 L17.2141176,8.82336634 L16.1894118,3.65009901 L11.0662745,2.61544554 L3.19411765,10.5661386 L3.19411765,10.5661386 Z" id="Shape"></path>
                        <path d="M14.7480392,6.82693069 C15.2186275,6.35128713 15.2182353,5.5809901 14.7484314,5.10574257 C14.277451,4.63049505 13.5147059,4.63009901 13.0435294,5.10574257 C12.5731373,5.58059406 12.5731373,6.35148515 13.0439216,6.82693069 C13.5143137,7.3019802 14.2776471,7.3019802 14.7480392,6.82693069 L14.7480392,6.82693069 Z" id="Shape"></path>
                    </g>
                </g>
            </g>
        </g>
    </g>
</svg>