<?xml version="1.0" encoding="UTF-8" standalone="no"?>
<svg width="20px" height="20px" viewBox="0 0 20 20" version="1.1" xmlns="http://www.w3.org/2000/svg" xmlns:xlink="http://www.w3.org/1999/xlink" xmlns:sketch="http://www.bohemiancoding.com/sketch/ns">
    <!-- Generator: Sketch 3.3.1 (12005) - http://www.bohemiancoding.com/sketch -->
    <title>icon_check</title>
    <desc>Created with Sketch.</desc>
    <defs></defs>
    <g id="Page-1" stroke="none" stroke-width="1" fill="none" fill-rule="evenodd" sketch:type="MSPage">
        <g id="EducaSound_ficha_curso" sketch:type="MSArtboardGroup" transform="translate(-595.000000, -1274.000000)" fill="#FFFFFF">
            <g id="ficha_curso" sketch:type="MSLayerGroup" transform="translate(0.000000, 160.000000)">
                <g id="Temario" transform="translate(0.000000, 964.000000)" sketch:type="MSShapeGroup">
                    <g id="punto_1" transform="translate(595.000000, 143.000000)">
                        <g id="icon_check" transform="translate(0.000000, 7.000000)">
                            <path d="M10,0 C4.48888889,0 0,4.48888889 0,10 C0,15.5111111 4.48888889,20 10,20 C15.5111111,20 20,15.5111111 20,10 C20,4.48888889 15.5111111,0 10,0 L10,0 Z M10,18 C5.57777778,18 2,14.4222222 2,10 C2,5.57777778 5.57777778,2 10,2 C14.4222222,2 18,5.57777778 18,10 C18,14.4222222 14.4222222,18 10,18 L10,18 Z" id="Shape"></path>
                            <path d="M8.93333333,11.5111111 L5.64444444,8.22222222 L4.22222222,9.64444444 L8.93333333,14.3555556 L15.6444444,7.64444444 L14.2222222,6.22222222 L8.93333333,11.5111111 Z" id="Shape"></path>
                        </g>
                    </g>
                </g>
            </g>
        </g>
    </g>
</svg>