<?xml version="1.0" encoding="UTF-8" standalone="no"?>
<svg width="20px" height="15px" viewBox="0 0 20 15" version="1.1" xmlns="http://www.w3.org/2000/svg" xmlns:xlink="http://www.w3.org/1999/xlink" xmlns:sketch="http://www.bohemiancoding.com/sketch/ns">
    <!-- Generator: Sketch 3.3.1 (12005) - http://www.bohemiancoding.com/sketch -->
    <title>icon_profe</title>
    <desc>Created with Sketch.</desc>
    <defs></defs>
    <g id="Page-1" stroke="none" stroke-width="1" fill="none" fill-rule="evenodd" sketch:type="MSPage">
        <g id="EducaSound_ficha_curso" sketch:type="MSArtboardGroup" transform="translate(-1125.000000, -522.000000)" fill="#000000">
            <g id="ficha_curso" sketch:type="MSLayerGroup" transform="translate(0.000000, 160.000000)">
                <g id="datos_curso" transform="translate(1095.000000, 320.000000)" sketch:type="MSShapeGroup">
                    <g id="icon_profe" transform="translate(30.000000, 42.000000)">
                        <path d="M15.9750446,8.07827103 C15.5686275,8.07827103 15.2406417,8.40070093 15.2406417,8.80023364 L15.2442068,12.1682243 C13.7397504,13.0549065 12.0285205,13.5245327 10.2673797,13.5245327 C8.30659537,13.5245327 6.4171123,12.9392523 4.78787879,11.828271 L4.79857398,8.75817757 C4.79857398,8.35864486 4.47058824,8.03271028 4.06773619,8.03271028 L4.06417112,8.03271028 C3.65775401,8.03271028 3.32976827,8.35514019 3.32976827,8.75116822 L3.31550802,12.557243 L3.6114082,12.7745327 C5.56506239,14.2114486 7.86809269,14.9684579 10.2709447,14.9684579 C12.4491979,14.9684579 14.5632799,14.3481308 16.3850267,13.1705607 L16.7165775,12.9567757 L16.7130125,8.79672897 C16.7094474,8.40070093 16.3814617,8.07827103 15.9750446,8.07827103 L15.9750446,8.07827103 Z" id="Shape"></path>
                        <path d="M19.1336898,3.33294393 L11.2727273,0.24182243 C10.9269162,0.105140187 10.4812834,0.0315420561 10.0178253,0.0315420561 C9.5543672,0.0315420561 9.1087344,0.105140187 8.76292335,0.24182243 L0.901960784,3.33294393 C0.117647059,3.64135514 0.0356506239,4.17406542 0.0356506239,4.39135514 C0.0356506239,4.60514019 0.121212121,5.14135514 0.901960784,5.44976636 L8.76292335,8.54088785 C9.1087344,8.67757009 9.5543672,8.75116822 10.0178253,8.75116822 C10.4812834,8.75116822 10.9269162,8.67757009 11.2727273,8.54088785 L12.1247772,8.20794393 L12.1247772,10.9310748 C12.1247772,11.3306075 12.4527629,11.6530374 12.85918,11.6530374 C13.2655971,11.6530374 13.5935829,11.3306075 13.5935829,10.9310748 L13.5935829,7.6296729 L19.1336898,5.45327103 C19.9180036,5.14485981 20,4.61214953 20,4.39485981 C20,4.17406542 19.9180036,3.63785047 19.1336898,3.33294393 L19.1336898,3.33294393 Z M13.0338681,6.28738318 L10.5347594,3.87266355 C10.2459893,3.59228972 9.77896613,3.59579439 9.49376114,3.8796729 C9.20855615,4.1635514 9.21212121,4.62266355 9.50089127,4.90303738 L11.540107,6.87266355 L10.7272727,7.19158879 C10.5561497,7.25817757 10.2923351,7.30023364 10.0178253,7.30023364 C9.74331551,7.30023364 9.47950089,7.26168224 9.3083779,7.19158879 L2.17112299,4.38785047 L9.3083779,1.58060748 C9.47950089,1.51401869 9.74331551,1.47196262 10.0178253,1.47196262 C10.2923351,1.47196262 10.5561497,1.51051402 10.7272727,1.58060748 L17.8645276,4.38785047 L13.0338681,6.28738318 L13.0338681,6.28738318 Z" id="Shape"></path>
                    </g>
                </g>
            </g>
        </g>
    </g>
</svg>