<?xml version="1.0" encoding="UTF-8" standalone="no"?>
<svg width="21px" height="15px" viewBox="0 0 21 15" version="1.1" xmlns="http://www.w3.org/2000/svg" xmlns:xlink="http://www.w3.org/1999/xlink" xmlns:sketch="http://www.bohemiancoding.com/sketch/ns">
    <!-- Generator: Sketch 3.3.1 (12005) - http://www.bohemiancoding.com/sketch -->
    <title>Shape</title>
    <desc>Created with Sketch.</desc>
    <defs></defs>
    <g id="Page-1" stroke="none" stroke-width="1" fill="none" fill-rule="evenodd" sketch:type="MSPage">
        <g id="EducaSound_home" sketch:type="MSArtboardGroup" transform="translate(-1025.000000, -3319.000000)" fill="#FFFFFF">
            <g id="_footer" sketch:type="MSLayerGroup" transform="translate(500.000000, 3110.000000)">
                <g id="rrss" transform="translate(368.000000, 200.000000)" sketch:type="MSShapeGroup">
                    <g id="icon_youtube" transform="translate(151.363636, 0.000000)">
                        <path d="M26.0819022,11.8985941 C25.8368671,10.8855226 24.9657857,10.1389088 23.9176572,10.0274045 C21.4350521,9.76338518 18.9225138,9.59867792 16.4206493,9.600008 C13.9187849,9.59867792 11.4060145,9.76338518 8.92317739,10.0274045 C7.87504887,10.1389088 7.0044316,10.8855226 6.7596285,11.8985941 C6.41133518,13.3408356 6.40692641,14.9149758 6.40692641,16.4002229 C6.40692641,17.8852483 6.40692641,19.4593885 6.75545176,20.9018517 C7.0004869,21.9140365 7.87110418,22.6615369 8.9192327,22.7723763 C11.4018378,23.0363956 13.9143761,23.2011028 16.4164726,23.1999944 C18.918337,23.2011028 21.4311074,23.0366173 23.9134804,22.7723763 C24.961841,22.6613153 25.8326903,21.9140365 26.0777255,20.9018517 C26.4260188,19.4593885 26.4285712,17.8852483 26.4285712,16.4002229 C26.4285712,14.9151975 26.4304275,13.3408356 26.0819022,11.8985941 M19.8314178,16.8406984 L15.1117069,19.2784988 C14.6425203,19.5210152 14.2584927,19.3022184 14.2584927,18.7928008 L14.2584927,14.0074233 C14.2584927,13.4977841 14.6422882,13.2789872 15.1117069,13.5215037 L19.8314178,15.9595257 C20.3008364,16.2015988 20.3008364,16.5984036 19.8314178,16.8406984" id="Shape"></path>
                    </g>
                </g>
            </g>
        </g>
    </g>
</svg>