<?xml version="1.0" encoding="UTF-8" standalone="no"?>
<svg width="20px" height="21px" viewBox="0 0 20 21" version="1.1" xmlns="http://www.w3.org/2000/svg" xmlns:xlink="http://www.w3.org/1999/xlink" xmlns:sketch="http://www.bohemiancoding.com/sketch/ns">
    <!-- Generator: Sketch 3.3.1 (12005) - http://www.bohemiancoding.com/sketch -->
    <title>icon_level</title>
    <desc>Created with Sketch.</desc>
    <defs></defs>
    <g id="Page-1" stroke="none" stroke-width="1" fill="none" fill-rule="evenodd" sketch:type="MSPage">
        <g id="EducaSound_ficha_curso" sketch:type="MSArtboardGroup" transform="translate(-1125.000000, -578.000000)" fill="#1E2820">
            <g id="ficha_curso" sketch:type="MSLayerGroup" transform="translate(0.000000, 160.000000)">
                <g id="datos_curso" transform="translate(1095.000000, 320.000000)" sketch:type="MSShapeGroup">
                    <g id="icon_level" transform="translate(30.000000, 98.500000)">
                        <path d="M10.7954545,10.2954545 L8.95454545,5.79545455 C8.75,5.31818182 8.04545455,5.47727273 8.09090909,6 L8.52272727,10.8409091 C7.88636364,11.3409091 7.5,12.1136364 7.5,12.9545455 C7.5,14.4545455 8.72727273,15.6818182 10.2272727,15.6818182 C11.7272727,15.6818182 12.9545455,14.4545455 12.9545455,12.9545455 C12.9545455,11.6363636 12.0227273,10.5454545 10.7954545,10.2954545 L10.7954545,10.2954545 Z" id="Shape"></path>
                        <path d="M10,0 C4.47727273,0 0,4.47727273 0,10 C0,15.5227273 4.47727273,20 10,20 C15.5227273,20 20,15.5227273 20,10 C20,4.47727273 15.5227273,0 10,0 L10,0 Z M14.0909091,12.9545455 C14.0909091,14.8409091 12.1136364,16.8181818 10.2272727,16.8181818 C8.34090909,16.8181818 6.36363636,14.8409091 6.36363636,12.9545455 L2.36363636,12.9545455 C2,12.0454545 1.81818182,11.0454545 1.81818182,10 C1.81818182,5.47727273 5.47727273,1.81818182 10,1.81818182 C14.5227273,1.81818182 18.1818182,5.47727273 18.1818182,10 C18.1818182,11.0454545 17.9772727,12.0454545 17.6363636,12.9545455 L14.0909091,12.9545455 L14.0909091,12.9545455 Z" id="Shape"></path>
                        <path d="M15,10 L15,10 C15,9.75 15.2045455,9.54545455 15.4545455,9.54545455 L16.8181818,9.54545455 C17.0681818,9.54545455 17.2727273,9.75 17.2727273,10 L17.2727273,10 C17.2727273,10.25 17.0681818,10.4545455 16.8181818,10.4545455 L15.4545455,10.4545455 C15.2045455,10.4545455 15,10.25 15,10 L15,10 Z" id="Shape"></path>
                        <path d="M13.5454545,6.45454545 L13.5454545,6.45454545 C13.3636364,6.27272727 13.3636364,5.97727273 13.5454545,5.81818182 L14.5,4.86363636 C14.6818182,4.68181818 14.9772727,4.68181818 15.1363636,4.86363636 L15.1363636,4.86363636 C15.3181818,5.04545455 15.3181818,5.34090909 15.1363636,5.5 L14.1818182,6.45454545 C14,6.63636364 13.7045455,6.63636364 13.5454545,6.45454545 L13.5454545,6.45454545 Z" id="Shape"></path>
                        <path d="M10,5 L10,5 C9.75,5 9.54545455,4.79545455 9.54545455,4.54545455 L9.54545455,3.18181818 C9.54545455,2.93181818 9.75,2.72727273 10,2.72727273 L10,2.72727273 C10.25,2.72727273 10.4545455,2.93181818 10.4545455,3.18181818 L10.4545455,4.54545455 C10.4545455,4.79545455 10.25,5 10,5 L10,5 Z" id="Shape"></path>
                        <path d="M6.45454545,6.45454545 L6.45454545,6.45454545 C6.27272727,6.63636364 5.97727273,6.63636364 5.81818182,6.45454545 L4.86363636,5.5 C4.68181818,5.31818182 4.68181818,5.02272727 4.86363636,4.86363636 L4.86363636,4.86363636 C5.04545455,4.68181818 5.34090909,4.68181818 5.5,4.86363636 L6.45454545,5.81818182 C6.63636364,6 6.63636364,6.29545455 6.45454545,6.45454545 L6.45454545,6.45454545 Z" id="Shape"></path>
                        <path d="M5,10 L5,10 C5,10.25 4.79545455,10.4545455 4.54545455,10.4545455 L3.18181818,10.4545455 C2.93181818,10.4545455 2.72727273,10.25 2.72727273,10 L2.72727273,10 C2.72727273,9.75 2.93181818,9.54545455 3.18181818,9.54545455 L4.54545455,9.54545455 C4.79545455,9.54545455 5,9.75 5,10 L5,10 Z" id="Shape"></path>
                    </g>
                </g>
            </g>
        </g>
    </g>
</svg>