<?xml version="1.0" encoding="UTF-8" standalone="no"?>
<svg width="9px" height="16px" viewBox="0 0 9 16" version="1.1" xmlns="http://www.w3.org/2000/svg" xmlns:xlink="http://www.w3.org/1999/xlink" xmlns:sketch="http://www.bohemiancoding.com/sketch/ns">
    <!-- Generator: Sketch 3.3.1 (12005) - http://www.bohemiancoding.com/sketch -->
    <title>icon_facebook</title>
    <desc>Created with Sketch.</desc>
    <defs></defs>
    <g id="Page-1" stroke="none" stroke-width="1" fill="none" fill-rule="evenodd" sketch:type="MSPage">
        <g id="EducaSound_home" sketch:type="MSArtboardGroup" transform="translate(-880.000000, -3318.000000)" fill="#FFFFFF">
            <g id="_footer" sketch:type="MSLayerGroup" transform="translate(500.000000, 3110.000000)">
                <g id="rrss" transform="translate(368.000000, 200.000000)" sketch:type="MSShapeGroup">
                    <g id="icon_facebook">
                        <path d="M18.4086388,8 C18.4234466,8.00130219 18.4381515,8.00330556 18.4530622,8.0038064 C18.6731226,8.01161954 18.8933888,8.01542593 19.1133464,8.02764648 C19.3597318,8.04136955 19.6058088,8.06210441 19.8517829,8.08133675 C19.9324031,8.08754719 20.0125093,8.09816504 20.0947749,8.10708003 C20.072666,8.96081538 20.0505571,9.81084449 20.0284482,10.6620756 L19.9855673,10.6620756 C19.4039496,10.6593711 18.8221262,10.6567667 18.2405085,10.6541623 C18.0711442,10.6535613 17.9031167,10.665882 17.7381742,10.7063501 C17.4294726,10.7822777 17.2322408,10.9661869 17.1566593,11.2704985 C17.1125444,11.4479969 17.1026725,11.6287008 17.1024669,11.8100056 C17.1014385,12.4537879 17.1020555,13.0975703 17.1020555,13.7412525 C17.1205653,13.7765118 17.1343448,13.7765118 17.1481243,13.7765118 L20.0642338,13.7765118 C20.0792472,13.7765118 20.0941579,13.7761111 20.1091713,13.7759108 L20.1091713,13.8447265 C20.0891191,14.1839969 20.0736943,14.4992268 20.0584752,14.8144568 C20.0468552,15.0567642 20.0358521,15.2992719 20.0241293,15.5416795 C20.0095271,15.8464919 19.9947193,16.1514046 19.9797059,16.456217 C19.978986,16.4744477 19.9767237,16.4926783 19.9749756,16.5125117 L17.1015414,16.5125117 L17.1015414,24 L14.1340159,24 L14.1340159,16.5120109 L14.0991558,16.5120109 C13.4446302,16.5120109 12.7901046,16.5120109 12.135579,16.512111 C12.1238562,16.512111 12.1121333,16.513313 12.1005133,16.5138139 L12.1005133,13.7759108 C12.7785875,13.7764116 13.4437047,13.7765118 14.1089249,13.7764116 C14.1170486,13.7764116 14.1251723,13.7751094 14.1352499,13.7741077 C14.1352499,12.9818758 14.1348385,12.2317146 14.1354555,11.4816535 C14.1356612,11.160714 14.1722694,10.8436809 14.2554605,10.532658 C14.510381,9.57935529 15.083258,8.8738692 15.9906474,8.4334287 C16.5393589,8.16708091 17.1276607,8.04908252 17.7355006,8.01202021 C17.8058376,8.00771297 17.8761747,8.00400674 17.9465118,8 L18.4086388,8 L18.4086388,8 Z"></path>
                    </g>
                </g>
            </g>
        </g>
    </g>
</svg>