<?xml version="1.0" encoding="UTF-8" standalone="no"?>
<svg width="14px" height="21px" viewBox="0 0 14 21" version="1.1" xmlns="http://www.w3.org/2000/svg" xmlns:xlink="http://www.w3.org/1999/xlink" xmlns:sketch="http://www.bohemiancoding.com/sketch/ns">
    <!-- Generator: Sketch 3.3.1 (12005) - http://www.bohemiancoding.com/sketch -->
    <title>icon_time</title>
    <desc>Created with Sketch.</desc>
    <defs></defs>
    <g id="Page-1" stroke="none" stroke-width="1" fill="none" fill-rule="evenodd" sketch:type="MSPage">
        <g id="EducaSound_ficha_curso" sketch:type="MSArtboardGroup" transform="translate(-1128.000000, -637.000000)" fill="#1E2820">
            <g id="ficha_curso" sketch:type="MSLayerGroup" transform="translate(0.000000, 160.000000)">
                <g id="datos_curso" transform="translate(1095.000000, 320.000000)" sketch:type="MSShapeGroup">
                    <g id="icon_time" transform="translate(33.500000, 157.500000)">
                        <path d="M11.7215246,17.8664583 L11.7215246,17.8129167 C11.7215246,14.1666667 10.5344754,11.9647917 8.52459016,10 L8.52480328,10 C10.548541,8.02145833 11.7213115,5.83333333 11.7213115,2.1875 L11.7213115,2.12583333 C12.3941148,1.91958333 12.7868852,1.67229167 12.7868852,1.40625 C12.7868852,0.687083333 9.92432787,0.104166667 6.39344262,0.104166667 C2.86255738,0.104166667 0,0.687083333 0,1.40625 C0,1.67229167 0.392770492,1.91958333 1.06557377,2.12583333 L1.06557377,2.1875 C1.06557377,5.83333333 2.25283607,8.03520833 4.2625082,10 C4.26229508,10 4.26229508,10.0002083 4.2625082,10.0002083 C4.2625082,10.0002083 4.2625082,10.0002083 4.26229508,10.0002083 C2.23855738,11.9785417 1.06578689,14.1666667 1.06578689,17.8125 L1.06578689,17.8741667 C1.05193443,17.8785417 1.03978689,17.8829167 1.02593443,17.8872917 C0.969885246,17.9047917 0.915754098,17.9227083 0.863754098,17.9410417 C0.843934426,17.9479167 0.824114754,17.9547917 0.804934426,17.961875 C0.741213115,17.985 0.68047541,18.00875 0.62357377,18.0329167 C0.612918033,18.0372917 0.603327869,18.0420833 0.592885246,18.0464583 C0.544721311,18.0677083 0.499540984,18.0889583 0.456918033,18.1108333 C0.443491803,18.1175 0.430065574,18.1241667 0.417278689,18.13125 C0.369114754,18.1570833 0.323934426,18.183125 0.283655738,18.2095833 C0.278967213,18.2127083 0.275131148,18.2158333 0.270442623,18.2189583 C0.234852459,18.243125 0.203311475,18.2675 0.174327869,18.2922917 C0.166016393,18.299375 0.157918033,18.30625 0.150245902,18.3135417 C0.120409836,18.34125 0.0933442623,18.3691667 0.0724590164,18.3972917 C0.0711803279,18.3991667 0.0703278689,18.4008333 0.0690491803,18.4025 C0.0496557377,18.429375 0.0353770492,18.4564583 0.0240819672,18.48375 C0.0208852459,18.4910417 0.0181147541,18.4985417 0.0157704918,18.5058333 C0.00660655738,18.5347917 0,18.5639583 0,18.59375 C0,19.3127083 2.86255738,19.8958333 6.39344262,19.8958333 L6.40004918,19.8958333 L6.40665574,19.8958333 C9.94521311,19.8958333 12.8135246,19.3129167 12.8135246,18.59375 C12.8135246,18.324375 12.4109508,18.0741667 11.7215246,17.8664583 L11.7215246,17.8664583 L11.7215246,17.8664583 Z M2.13519672,17.6229167 C2.14414754,16.894375 2.20254098,16.2210417 2.31762295,15.5925 C2.6635082,13.7045833 3.51170492,12.2072917 5.01586885,10.736875 L5.76944262,10 L5.01586885,9.26333333 C3.01045902,7.30291667 2.1695082,5.295 2.13434426,2.37708333 C3.26534426,2.58291667 4.75736066,2.70833333 6.39344262,2.70833333 C8.0297377,2.70833333 9.52154098,2.58291667 10.6523279,2.37708333 C10.6171639,5.29541667 9.77621311,7.30333333 7.77101639,9.26354167 L7.01765574,10 L7.77122951,10.7366667 C9.27560656,12.2072917 10.1238033,13.7047917 10.4696885,15.5927083 C10.5845574,16.22 10.6429508,16.891875 10.6519016,17.6189583 C10.4818361,17.5885417 10.303459,17.5597917 10.1180492,17.5329167 C10.1067541,16.944375 10.0626393,16.3991667 9.97952459,15.8845833 L6.39322951,13.2554167 L2.80736066,15.8841667 C2.72403279,16.3995833 2.67970492,16.9460417 2.66883607,17.5366667 C2.48342623,17.56375 2.30504918,17.5927083 2.13519672,17.6235417 C2.13519672,17.6233333 2.13519672,17.623125 2.13519672,17.6229167 L2.13519672,17.6229167 L2.13519672,17.6229167 Z" id="Shape"></path>
                        <path d="M7.39444262,8.89520833 C7.72860656,8.56854167 8.28845902,7.89875 8.28845902,7.88979167 C8.28845902,7.74354167 7.43983607,7.625 6.39322951,7.625 C5.34640984,7.625 4.498,7.74354167 4.498,7.88979167 C4.498,7.89875 5.05806557,8.56833333 5.39244262,8.89520833 L6.39344262,9.87354167 L7.39444262,8.89520833 L7.39444262,8.89520833 Z" id="Shape"></path>
                    </g>
                </g>
            </g>
        </g>
    </g>
</svg>