<?xml version="1.0" encoding="UTF-8" standalone="no"?>
<svg width="20px" height="16px" viewBox="0 0 20 16" version="1.1" xmlns="http://www.w3.org/2000/svg" xmlns:xlink="http://www.w3.org/1999/xlink" xmlns:sketch="http://www.bohemiancoding.com/sketch/ns">
    <!-- Generator: Sketch 3.3.1 (12005) - http://www.bohemiancoding.com/sketch -->
    <title>icon_twitter</title>
    <desc>Created with Sketch.</desc>
    <defs></defs>
    <g id="Page-1" stroke="none" stroke-width="1" fill="none" fill-rule="evenodd" sketch:type="MSPage">
        <g id="EducaSound_home" sketch:type="MSArtboardGroup" transform="translate(-924.000000, -3318.000000)" fill="#FFFFFF">
            <g id="_footer" sketch:type="MSLayerGroup" transform="translate(500.000000, 3110.000000)">
                <g id="rrss" transform="translate(368.000000, 200.000000)" sketch:type="MSShapeGroup">
                    <g id="icon_twitter" transform="translate(49.653680, 0.000000)">
                        <path d="M11.57071,24 C11.5461968,23.9940606 11.5219587,23.9860737 11.4971245,23.9824787 C11.1847493,23.9373393 10.8707848,23.9017029 10.5601976,23.846154 C10.0506012,23.7549999 9.55106067,23.6205506 9.05972689,23.453591 C8.20003794,23.1614508 7.38783185,22.767278 6.62032721,22.2759023 C6.60762742,22.2677904 6.59738811,22.2556459 6.57322641,22.233842 C7.27574967,22.3127579 7.95858902,22.3006134 8.63942636,22.1982995 C9.32316737,22.0955479 9.98401515,21.9071595 10.6178128,21.625554 C11.2745801,21.3337732 12.2951331,20.6993206 12.3667624,20.5393632 C11.8173397,20.5220452 11.2947684,20.3997405 10.7992777,20.1636651 C10.3007612,19.9261517 9.8684944,19.5973591 9.50403629,19.175912 C9.14264997,18.7580442 8.8748998,18.2860184 8.70104557,17.739125 C9.3020469,17.8518954 9.88026196,17.831295 10.4639329,17.6697903 C10.4199956,17.6422659 10.4050951,17.6386084 10.3902404,17.6352324 C10.1308345,17.5763698 9.87949783,17.4919523 9.63850739,17.3777283 C8.69632327,16.9311325 8.01935242,16.2192175 7.6119198,15.2426556 C7.41381218,14.7677695 7.31759328,14.2692665 7.31025766,13.7530078 C7.30984503,13.7240298 7.31534675,13.6949737 7.31933549,13.6528665 C7.60131371,13.810917 7.88416303,13.9277824 8.17980385,14.009496 C8.47222004,14.0903031 8.76899176,14.1445861 9.07522339,14.1368805 C8.23636454,13.5208399 7.6742573,12.7146918 7.44385766,11.6840188 C7.21408461,10.6561436 7.36284489,9.68123838 7.87091307,8.74487676 C8.38264905,9.37851667 8.93592299,9.94429116 9.54931846,10.4476082 C10.1612774,10.949753 10.816058,11.3841261 11.515647,11.7473828 C12.217345,12.1117492 12.9496692,12.3941363 13.7092728,12.6044066 C14.640805,12.8622546 15.8256759,12.9946406 16.0265191,12.9547841 C16.0266108,12.9043461 16.0224081,12.8760089 16.0167688,12.848 C15.933265,12.4337427 15.9193732,12.0156091 15.9634786,11.5965065 C16.02143,11.0458149 16.1830429,10.5267428 16.4553167,10.0473241 C16.9576845,9.16274462 17.6801056,8.5466103 18.6277457,8.21400405 C19.223398,8.00496853 19.8348832,7.95201411 20.4583957,8.04226169 C21.0719593,8.13105568 21.6327675,8.3579094 22.143449,8.71550801 C22.3563501,8.86460251 22.5526239,9.03442238 22.7306961,9.22540527 C22.7685204,9.26598072 22.8051526,9.2796726 22.8588402,9.26493352 C22.944774,9.24130097 23.0328014,9.22574912 23.1193617,9.20435166 C23.8517929,9.02324694 24.5445659,8.74009398 25.1986894,8.35770621 C25.2219953,8.34409248 25.2460347,8.33182294 25.2697379,8.31892819 C24.9693595,9.26585569 24.3970741,9.99033712 23.5832939,10.5247422 C24.35034,10.4386991 25.0834284,10.2325395 25.7940056,9.92894251 C25.774826,9.97358177 25.7514743,10.0102497 25.7268236,10.0459799 C25.2322651,10.7623963 24.6444374,11.3866269 23.9549807,11.9085749 C23.8782012,11.9666872 23.8507384,12.0261437 23.8538714,12.1219087 C23.8678091,12.5488732 23.8620169,12.9755407 23.8271575,13.4018801 C23.7959505,13.7836426 23.7483606,14.1629513 23.6799865,14.5392746 C23.4977116,15.5427514 23.196936,16.5078723 22.7752446,17.4332616 C22.0947283,18.926598 21.1615609,20.2274511 19.9485395,21.3152674 C19.3330045,21.8672875 18.6633081,22.339407 17.9403521,22.7314854 C17.0622018,23.2077313 16.1351627,23.5485588 15.163957,23.7636276 C14.7457502,23.8562353 14.3237686,23.9254918 13.8977371,23.9684899 C13.8247477,23.9758517 13.7523696,23.9893403 13.6797011,24 L11.57071,24 L11.57071,24 Z"></path>
                    </g>
                </g>
            </g>
        </g>
    </g>
</svg>